<?xml version="1.0" encoding="UTF-8" standalone="no"?>
<svg
   version="1.1"
   viewBox="0 0 240 240"
   id="svg4"
   sodipodi:docname="memory.svg"
   inkscape:version="1.2.2 (b0a8486541, 2022-12-01)"
   xmlns:inkscape="http://www.inkscape.org/namespaces/inkscape"
   xmlns:sodipodi="http://sodipodi.sourceforge.net/DTD/sodipodi-0.dtd"
   xmlns="http://www.w3.org/2000/svg"
   xmlns:svg="http://www.w3.org/2000/svg">
  <sodipodi:namedview
     id="namedview234"
     pagecolor="#ffffff"
     bordercolor="#000000"
     borderopacity="0.25"
     inkscape:showpageshadow="2"
     inkscape:pageopacity="0.0"
     inkscape:pagecheckerboard="0"
     inkscape:deskcolor="#d1d1d1"
     showgrid="false"
     inkscape:zoom="2.0358783"
     inkscape:cx="116.90286"
     inkscape:cy="119.11321"
     inkscape:window-width="1600"
     inkscape:window-height="880"
     inkscape:window-x="0"
     inkscape:window-y="20"
     inkscape:window-maximized="1"
     inkscape:current-layer="svg4" />
  <defs
     id="defs8" />
  <path
     d="M 175.55556,175.55556 H 64.444444 V 64.44444 H 175.55556 M 220,108.88889 V 86.66667 H 197.77778 V 64.44444 c 0,-12.33333 -10,-22.22222 -22.22222,-22.22222 H 153.33333 V 20 H 131.11111 V 42.22222 H 108.88889 V 20 H 86.666667 V 42.22222 H 64.444444 c -12.333333,0 -22.222222,9.88889 -22.222222,22.22222 V 86.66667 H 20 v 22.22222 h 22.222222 v 22.22222 H 20 v 22.22222 h 22.222222 v 22.22223 a 22.222222,22.222222 0 0 0 22.222222,22.22222 H 86.666667 V 220 h 22.222223 v -22.22222 h 22.22222 V 220 h 22.22222 v -22.22222 h 22.22223 a 22.222222,22.222222 0 0 0 22.22222,-22.22222 V 153.33333 H 220 v -22.22222 h -22.22222 v -22.22222 m -66.66667,22.22222 h -22.22222 v -22.22222 h 22.22222 M 153.33333,86.66667 H 86.666667 v 66.66666 h 66.666663 z"
     id="path2"
     inkscape:connector-curvature="0"
     style="fill:#ffffff;stroke-width:11.11111164" />
</svg>
